<svg viewBox="0 0 50 50" xmlns="http://www.w3.org/2000/svg" xmlns:xlink="http://www.w3.org/1999/xlink" version="1.1" class="jsx-2263963463 artboard-inner" style="width: 55px; height: 55px; max-height: 100%;"><g transform="translate(24.75 25) scale(1.4285714285714286)" id="lockup4-icon"><g fill="#fff"><g transform="translate(-17.325 -17.5) scale(0.35)" id="container"><g fill="#232323"><rect vector-effect="non-scaling-stroke" x="1" y="1" width="98" height="98" rx="10"></rect></g></g><g transform="translate(-9.9 -10) scale(1.25)" id="icon"><g fill="#FFFFFF"><path d="M7.969 2L6 13.844 5.969 14h2.063l1.969-11.844.031-.156H7.969zM5 3.813l-.531.344-4 2.5L0 6.938v2.126l.469.281 4 2.5.531.344V9.814L2.094 8.001 5 6.188V3.813zm6 0v2.375l2.906 1.813L11 9.814v2.375l.531-.344 4-2.5.469-.281V6.938l-.469-.281-4-2.5L11 3.813z"></path></g></g></g></g></svg>