<svg viewBox="-198.88544647261966 0 397.7708929452393 100" xmlns="http://www.w3.org/2000/svg" xmlns:xlink="http://www.w3.org/1999/xlink" version="1.1" style="width: 338px; height: 84.9735px; max-height: 100%;"><g transform="translate(-201.89481993093244 76.76369018253577) scale(1.4032779696321878)" fill="#fff"><g id="line1"><path d="M4.184-36.422L4.184-26.789L8.121-26.789L8.121 6.926L2.145 6.926L2.145 16.559L25.910 16.559L25.910 6.926L18.949 6.926L18.949-1.055C20.191-0.516 21.480-0.100 22.816 0.193C24.152 0.486 25.594 0.633 27.141 0.633C29.883 0.633 32.408 0.135 34.717-0.861C37.025-1.857 39.012-3.217 40.676-4.939C42.340-6.662 43.635-8.684 44.561-11.004C45.486-13.324 45.949-15.797 45.949-18.422C45.949-21.023 45.475-23.484 44.525-25.805C43.576-28.125 42.258-30.152 40.570-31.887C38.883-33.621 36.891-34.992 34.594-36C32.297-37.008 29.813-37.512 27.141-37.512C25.898-37.512 24.691-37.365 23.520-37.072C22.348-36.779 21.199-36.387 20.074-35.895L20.074-36.422ZM26.367-27.809C27.586-27.809 28.734-27.592 29.813-27.158C30.891-26.725 31.828-26.104 32.625-25.295C33.422-24.486 34.049-23.496 34.506-22.324C34.963-21.152 35.191-19.828 35.191-18.352C35.191-17.016 34.957-15.779 34.488-14.643C34.020-13.506 33.387-12.521 32.590-11.689C31.793-10.857 30.855-10.213 29.777-9.756C28.699-9.299 27.563-9.070 26.367-9.070C24.750-9.070 23.297-9.445 22.008-10.195C20.719-10.945 19.699-11.918 18.949-13.113L18.949-23.379C19.840-24.785 20.930-25.875 22.219-26.648C23.508-27.422 24.891-27.809 26.367-27.809Z"></path><path d="M49.329-18.352C49.329-15.680 49.792-13.178 50.718-10.846C51.643-8.514 52.950-6.480 54.638-4.746C56.325-3.012 58.358-1.641 60.737-0.633C63.116 0.375 65.770 0.879 68.700 0.879C71.606 0.879 74.249 0.375 76.628-0.633C79.007-1.641 81.046-3.018 82.745-4.764C84.444-6.510 85.757-8.549 86.683-10.881C87.608-13.213 88.071-15.703 88.071-18.352C88.071-21.000 87.597-23.484 86.647-25.805C85.698-28.125 84.368-30.152 82.657-31.887C80.946-33.621 78.901-34.992 76.522-36C74.143-37.008 71.536-37.512 68.700-37.512C65.864-37.512 63.263-37.008 60.895-36C58.528-34.992 56.489-33.621 54.778-31.887C53.067-30.152 51.731-28.125 50.770-25.805C49.809-23.484 49.329-21.000 49.329-18.352ZM59.841-18.352C59.841-19.805 60.075-21.117 60.544-22.289C61.013-23.461 61.651-24.457 62.460-25.277C63.268-26.098 64.206-26.725 65.272-27.158C66.339-27.592 67.481-27.797 68.700-27.773C69.942-27.797 71.097-27.592 72.163-27.158C73.229-26.725 74.155-26.098 74.940-25.277C75.725-24.457 76.341-23.461 76.786-22.289C77.231-21.117 77.454-19.805 77.454-18.352C77.454-16.945 77.231-15.662 76.786-14.502C76.341-13.342 75.725-12.340 74.940-11.496C74.155-10.652 73.229-10.002 72.163-9.545C71.097-9.088 69.942-8.859 68.700-8.859C67.481-8.859 66.339-9.094 65.272-9.563C64.206-10.031 63.268-10.688 62.460-11.531C61.651-12.375 61.013-13.377 60.544-14.537C60.075-15.697 59.841-16.969 59.841-18.352Z"></path><path d="M113.635-54.703L113.635-45.070L118.732-45.070L118.732-35.824C117.513-36.363 116.236-36.779 114.900-37.072C113.564-37.365 112.135-37.512 110.611-37.512C107.845-37.512 105.308-37.020 103.000-36.035C100.691-35.051 98.711-33.703 97.058-31.992C95.406-30.281 94.117-28.271 93.191-25.963C92.265-23.654 91.803-21.164 91.803-18.492C91.803-15.820 92.271-13.318 93.209-10.986C94.146-8.654 95.453-6.621 97.129-4.887C98.804-3.152 100.808-1.787 103.140-0.791C105.472 0.205 108.033 0.703 110.822 0.703C112.181 0.703 113.523 0.516 114.847 0.141C116.172-0.234 117.467-0.750 118.732-1.406L118.732 0L136.662 0L136.662-9.633L129.560-9.633L129.560-54.703ZM111.420-9C110.201-9.047 109.058-9.281 107.992-9.703C106.926-10.125 105.988-10.740 105.179-11.549C104.371-12.357 103.732-13.342 103.263-14.502C102.795-15.662 102.560-16.957 102.560-18.387C102.560-19.840 102.795-21.141 103.263-22.289C103.732-23.438 104.371-24.422 105.179-25.242C105.988-26.062 106.926-26.695 107.992-27.141C109.058-27.586 110.201-27.797 111.420-27.773C112.873-27.797 114.250-27.463 115.551-26.771C116.851-26.080 117.912-25.113 118.732-23.871L118.732-13.148C117.912-11.930 116.875-10.945 115.621-10.195C114.367-9.445 112.967-9.047 111.420-9Z"></path><path d="M139.655-5.695C139.655-4.734 139.825-3.838 140.165-3.006C140.505-2.174 140.985-1.453 141.606-0.844C142.227-0.234 142.954 0.252 143.786 0.615C144.618 0.979 145.526 1.160 146.510 1.160C147.448 1.160 148.327 0.979 149.147 0.615C149.967 0.252 150.682-0.234 151.292-0.844C151.901-1.453 152.387-2.180 152.751-3.023C153.114-3.867 153.296-4.758 153.296-5.695C153.296-6.609 153.120-7.488 152.768-8.332C152.417-9.176 151.930-9.908 151.309-10.529C150.688-11.150 149.962-11.643 149.130-12.006C148.298-12.369 147.425-12.551 146.510-12.551C145.550-12.551 144.647-12.369 143.803-12.006C142.960-11.643 142.227-11.145 141.606-10.512C140.985-9.879 140.505-9.152 140.165-8.332C139.825-7.512 139.655-6.633 139.655-5.695Z"></path><path d="M178.859-54.703L178.859-45.070L183.957-45.070L183.957-35.824C182.738-36.363 181.461-36.779 180.125-37.072C178.789-37.365 177.359-37.512 175.836-37.512C173.070-37.512 170.533-37.020 168.224-36.035C165.916-35.051 163.935-33.703 162.283-31.992C160.630-30.281 159.341-28.271 158.416-25.963C157.490-23.654 157.027-21.164 157.027-18.492C157.027-15.820 157.496-13.318 158.433-10.986C159.371-8.654 160.677-6.621 162.353-4.887C164.029-3.152 166.033-1.787 168.365-0.791C170.697 0.205 173.257 0.703 176.046 0.703C177.406 0.703 178.748 0.516 180.072 0.141C181.396-0.234 182.691-0.750 183.957-1.406L183.957 0L201.886 0L201.886-9.633L194.785-9.633L194.785-54.703ZM176.644-9C175.425-9.047 174.283-9.281 173.216-9.703C172.150-10.125 171.212-10.740 170.404-11.549C169.595-12.357 168.957-13.342 168.488-14.502C168.019-15.662 167.785-16.957 167.785-18.387C167.785-19.840 168.019-21.141 168.488-22.289C168.957-23.438 169.595-24.422 170.404-25.242C171.212-26.062 172.150-26.695 173.216-27.141C174.283-27.586 175.425-27.797 176.644-27.773C178.097-27.797 179.474-27.463 180.775-26.771C182.076-26.080 183.136-25.113 183.957-23.871L183.957-13.148C183.136-11.930 182.099-10.945 180.845-10.195C179.591-9.445 178.191-9.047 176.644-9Z"></path><path d="M214.688-15.926L241.512-15.926C241.559-16.535 241.577-17.127 241.565-17.701C241.553-18.275 241.512-18.855 241.442-19.441C241.372-22.043 240.926-24.475 240.106-26.736C239.286-28.998 238.114-30.967 236.590-32.643C235.067-34.318 233.198-35.631 230.983-36.580C228.768-37.529 226.231-38.004 223.372-38.004C220.512-38.004 217.911-37.500 215.567-36.492C213.223-35.484 211.208-34.107 209.520-32.361C207.833-30.615 206.526-28.570 205.600-26.227C204.674-23.883 204.211-21.375 204.211-18.703C204.211-16.031 204.651-13.500 205.530-11.109C206.409-8.719 207.686-6.633 209.362-4.852C211.038-3.070 213.106-1.658 215.567-0.615C218.028 0.428 220.840 0.949 224.004 0.949C225.692 0.949 227.168 0.861 228.434 0.686C229.700 0.510 230.895 0.234 232.020-0.141C233.145-0.516 234.264-0.990 235.377-1.564C236.491-2.139 237.715-2.836 239.051-3.656L235.184-10.863C234.317-10.535 233.461-10.225 232.618-9.932C231.774-9.639 230.907-9.381 230.016-9.158C229.125-8.936 228.206-8.760 227.256-8.631C226.307-8.502 225.305-8.438 224.250-8.438C223.196-8.438 222.153-8.572 221.122-8.842C220.090-9.111 219.153-9.516 218.309-10.055C217.465-10.594 216.733-11.262 216.112-12.059C215.491-12.855 215.051-13.781 214.793-14.836ZM223.090-29.215C224.332-29.215 225.370-29.057 226.202-28.740C227.034-28.424 227.719-27.996 228.258-27.457C228.797-26.918 229.219-26.297 229.524-25.594C229.829-24.891 230.063-24.141 230.227-23.344L215.004-23.344C215.215-24.117 215.508-24.855 215.883-25.559C216.258-26.262 216.762-26.889 217.395-27.439C218.028-27.990 218.807-28.424 219.733-28.740C220.659-29.057 221.778-29.215 223.090-29.215Z"></path><path d="M244.259-36.422L244.259-26.789L248.302-26.789L259.165 0.141L269.888 0.141L280.751-26.789L285.603-26.789L285.603-36.422L266.583-36.422L266.583-26.789L270.521-26.789L264.790-11.145L258.849-26.789L263.279-26.789L263.279-36.422Z"></path></g></g></svg>